<?xml version="1.0" encoding="UTF-8"?>
<!DOCTYPE svg PUBLIC "-//W3C//DTD SVG 1.1//EN" "http://www.w3.org/Graphics/SVG/1.1/DTD/svg11.dtd">
<svg version="1.2" width="6.61mm" height="6.61mm" viewBox="0 0 661 661" preserveAspectRatio="xMidYMid" fill-rule="evenodd" stroke-width="28.222" stroke-linejoin="round" xmlns="http://www.w3.org/2000/svg" xmlns:ooo="http://xml.openoffice.org/svg/export" xmlns:xlink="http://www.w3.org/1999/xlink" xmlns:presentation="http://sun.com/xmlns/staroffice/presentation" xmlns:smil="http://www.w3.org/2001/SMIL20/" xmlns:anim="urn:oasis:names:tc:opendocument:xmlns:animation:1.0" xml:space="preserve">
 <defs class="ClipPathGroup">
  <clipPath id="presentation_clip_path" clipPathUnits="userSpaceOnUse">
   <rect x="0" y="0" width="661" height="661"/>
  </clipPath>
  <clipPath id="presentation_clip_path_shrink" clipPathUnits="userSpaceOnUse">
   <rect x="0" y="0" width="660" height="660"/>
  </clipPath>
 </defs>
 <defs class="TextShapeIndex">
  <g ooo:slide="id1" ooo:id-list="id3"/>
 </defs>
 <defs class="EmbeddedBulletChars">
  <g id="bullet-char-template-57356" transform="scale(0.00048828125,-0.00048828125)">
   <path d="M 580,1141 L 1163,571 580,0 -4,571 580,1141 Z"/>
  </g>
  <g id="bullet-char-template-57354" transform="scale(0.00048828125,-0.00048828125)">
   <path d="M 8,1128 L 1137,1128 1137,0 8,0 8,1128 Z"/>
  </g>
  <g id="bullet-char-template-10146" transform="scale(0.00048828125,-0.00048828125)">
   <path d="M 174,0 L 602,739 174,1481 1456,739 174,0 Z M 1358,739 L 309,1346 659,739 1358,739 Z"/>
  </g>
  <g id="bullet-char-template-10132" transform="scale(0.00048828125,-0.00048828125)">
   <path d="M 2015,739 L 1276,0 717,0 1260,543 174,543 174,936 1260,936 717,1481 1274,1481 2015,739 Z"/>
  </g>
  <g id="bullet-char-template-10007" transform="scale(0.00048828125,-0.00048828125)">
   <path d="M 0,-2 C -7,14 -16,27 -25,37 L 356,567 C 262,823 215,952 215,954 215,979 228,992 255,992 264,992 276,990 289,987 310,991 331,999 354,1012 L 381,999 492,748 772,1049 836,1024 860,1049 C 881,1039 901,1025 922,1006 886,937 835,863 770,784 769,783 710,716 594,584 L 774,223 C 774,196 753,168 711,139 L 727,119 C 717,90 699,76 672,76 641,76 570,178 457,381 L 164,-76 C 142,-110 111,-127 72,-127 30,-127 9,-110 8,-76 1,-67 -2,-52 -2,-32 -2,-23 -1,-13 0,-2 Z"/>
  </g>
  <g id="bullet-char-template-10004" transform="scale(0.00048828125,-0.00048828125)">
   <path d="M 285,-33 C 182,-33 111,30 74,156 52,228 41,333 41,471 41,549 55,616 82,672 116,743 169,778 240,778 293,778 328,747 346,684 L 369,508 C 377,444 397,411 428,410 L 1163,1116 C 1174,1127 1196,1133 1229,1133 1271,1133 1292,1118 1292,1087 L 1292,965 C 1292,929 1282,901 1262,881 L 442,47 C 390,-6 338,-33 285,-33 Z"/>
  </g>
  <g id="bullet-char-template-9679" transform="scale(0.00048828125,-0.00048828125)">
   <path d="M 813,0 C 632,0 489,54 383,161 276,268 223,411 223,592 223,773 276,916 383,1023 489,1130 632,1184 813,1184 992,1184 1136,1130 1245,1023 1353,916 1407,772 1407,592 1407,412 1353,268 1245,161 1136,54 992,0 813,0 Z"/>
  </g>
  <g id="bullet-char-template-8226" transform="scale(0.00048828125,-0.00048828125)">
   <path d="M 346,457 C 273,457 209,483 155,535 101,586 74,649 74,723 74,796 101,859 155,911 209,963 273,989 346,989 419,989 480,963 531,910 582,859 608,796 608,723 608,648 583,586 532,535 482,483 420,457 346,457 Z"/>
  </g>
  <g id="bullet-char-template-8211" transform="scale(0.00048828125,-0.00048828125)">
   <path d="M -4,459 L 1135,459 1135,606 -4,606 -4,459 Z"/>
  </g>
  <g id="bullet-char-template-61548" transform="scale(0.00048828125,-0.00048828125)">
   <path d="M 173,740 C 173,903 231,1043 346,1159 462,1274 601,1332 765,1332 928,1332 1067,1274 1183,1159 1299,1043 1357,903 1357,740 1357,577 1299,437 1183,322 1067,206 928,148 765,148 601,148 462,206 346,322 231,437 173,577 173,740 Z"/>
  </g>
 </defs>
 <g>
  <g id="id2" class="Master_Slide">
   <g id="bg-id2" class="Background"/>
   <g id="bo-id2" class="BackgroundObjects"/>
  </g>
 </g>
 <g class="SlideGroup">
  <g>
   <g id="container-id1">
    <g id="id1" class="Slide" clip-path="url(#presentation_clip_path)">
     <g class="Page">
      <g class="Graphic">
       <g id="id3">
        <rect class="BoundingBox" stroke="none" fill="none" x="0" y="0" width="661" height="661"/>
        <defs>
         <mask id="mask1">
          <g>
           <defs>
            <linearGradient id="gradient1" x1="331" y1="100" x2="331" y2="580" gradientUnits="userSpaceOnUse">
             <stop offset="0.5" style="stop-color:rgb(51,51,51)"/>
             <stop offset="0.5" style="stop-color:rgb(51,51,51)"/>
             <stop offset="1" style="stop-color:rgb(51,51,51)"/>
             <stop offset="1" style="stop-color:rgb(51,51,51)"/>
            </linearGradient>
           </defs>
           <path style="fill:url(#gradient1)" d="M 146,100 L 517,100 517,580 146,580 146,100 Z"/>
          </g>
         </mask>
        </defs>
        <g style="mask:url(#mask1)">
         <defs>
          <mask id="mask2">
           <g>
            <defs>
             <linearGradient id="gradient2" x1="330" y1="133" x2="330" y2="580" gradientUnits="userSpaceOnUse">
              <stop offset="0.5" style="stop-color:rgb(25,25,25)"/>
              <stop offset="0.5" style="stop-color:rgb(25,25,25)"/>
              <stop offset="1" style="stop-color:rgb(25,25,25)"/>
              <stop offset="1" style="stop-color:rgb(25,25,25)"/>
             </linearGradient>
            </defs>
            <path style="fill:url(#gradient2)" d="M 149,133 L 511,133 511,580 149,580 149,133 Z"/>
           </g>
          </mask>
         </defs>
         <g style="mask:url(#mask2)">
          <defs>
           <mask id="mask3">
            <g>
             <defs>
              <linearGradient id="gradient3" x1="330" y1="133" x2="330" y2="580" gradientUnits="userSpaceOnUse">
               <stop offset="0.5" style="stop-color:rgb(25,25,25)"/>
               <stop offset="0.5" style="stop-color:rgb(25,25,25)"/>
               <stop offset="1" style="stop-color:rgb(25,25,25)"/>
               <stop offset="1" style="stop-color:rgb(25,25,25)"/>
              </linearGradient>
             </defs>
             <path style="fill:url(#gradient3)" d="M 149,133 L 511,133 511,580 149,580 149,133 Z"/>
            </g>
           </mask>
          </defs>
          <g style="mask:url(#mask3)">
           <path fill="rgb(0,0,0)" fill-opacity="0.898" stroke="rgb(255,255,255)" stroke-opacity="0.898" d="M 473,133 C 380,133 363,265 415,265 467,265 566,133 473,133 L 473,133 Z"/>
           <path fill="rgb(0,0,0)" fill-opacity="0.898" stroke="rgb(255,255,255)" stroke-opacity="0.898" d="M 319,249 C 347,251 377,143 325,149 273,156 291,247 319,249 L 319,249 Z"/>
           <path fill="rgb(0,0,0)" fill-opacity="0.898" stroke="rgb(255,255,255)" stroke-opacity="0.898" d="M 192,316 C 212,307 194,222 161,245 127,269 172,325 192,316 L 192,316 Z"/>
           <path fill="rgb(0,0,0)" fill-opacity="0.898" stroke="rgb(255,255,255)" stroke-opacity="0.898" d="M 247,271 C 271,267 272,170 230,187 188,205 224,276 247,271 L 247,271 Z"/>
           <path fill="rgb(0,0,0)" fill-opacity="0.898" stroke="rgb(255,255,255)" stroke-opacity="0.898" d="M 370,488 C 374,520 347,536 320,515 234,450 462,417 447,327 435,253 207,276 181,392 164,471 253,580 347,580 393,580 446,539 456,486 464,445 367,462 370,488 L 370,488 Z"/>
          </g>
         </g>
         <defs>
          <mask id="mask4">
           <g>
            <defs>
             <linearGradient id="gradient4" x1="331" y1="100" x2="331" y2="556" gradientUnits="userSpaceOnUse">
              <stop offset="0.5" style="stop-color:rgb(51,51,51)"/>
              <stop offset="0.5" style="stop-color:rgb(51,51,51)"/>
              <stop offset="1" style="stop-color:rgb(51,51,51)"/>
              <stop offset="1" style="stop-color:rgb(51,51,51)"/>
             </linearGradient>
            </defs>
            <path style="fill:url(#gradient4)" d="M 146,100 L 517,100 517,556 146,556 146,100 Z"/>
           </g>
          </mask>
         </defs>
         <g style="mask:url(#mask4)">
          <path fill="rgb(255,255,255)" fill-opacity="0.8" stroke="rgb(255,255,255)" stroke-opacity="0.8" d="M 328,555 C 294,548 263,532 235,504 190,461 169,405 181,361 183,352 189,339 194,331 202,319 220,302 234,293 260,275 294,263 332,257 346,255 384,255 395,257 435,265 454,282 452,309 451,329 440,346 415,366 407,373 384,388 354,407 324,426 310,437 305,448 302,453 302,455 302,461 302,469 305,475 313,483 334,505 361,506 371,485 373,481 373,478 374,468 374,453 376,450 391,444 402,438 411,436 427,436 443,436 449,438 455,443 462,449 463,455 459,469 448,507 415,539 376,552 367,555 365,555 350,556 340,556 332,556 328,555 L 328,555 Z"/>
          <path fill="rgb(255,255,255)" fill-opacity="0.8" stroke="rgb(255,255,255)" stroke-opacity="0.8" d="M 408,232 C 386,221 384,178 404,144 416,123 434,109 456,103 466,100 490,100 498,102 506,105 511,109 514,115 523,132 511,163 485,193 470,210 452,224 437,231 427,235 415,235 408,232 L 408,232 Z"/>
          <path fill="rgb(255,255,255)" fill-opacity="0.8" stroke="rgb(255,255,255)" stroke-opacity="0.8" d="M 318,217 C 302,214 289,177 295,151 299,130 311,118 329,117 338,117 344,118 348,124 359,137 358,168 344,195 336,211 327,219 318,217 L 318,217 Z"/>
          <path fill="rgb(255,255,255)" fill-opacity="0.8" stroke="rgb(255,255,255)" stroke-opacity="0.8" d="M 238,239 C 231,236 222,225 218,216 213,205 210,197 210,186 210,179 211,177 213,172 217,164 221,160 228,157 243,149 254,156 261,176 263,182 263,185 263,198 263,220 259,233 251,239 246,242 243,242 238,239 L 238,239 Z"/>
          <path fill="rgb(255,255,255)" fill-opacity="0.8" stroke="rgb(255,255,255)" stroke-opacity="0.8" d="M 180,286 C 161,280 143,250 147,232 149,221 160,211 169,211 172,211 175,212 177,213 184,216 192,229 196,243 198,253 198,275 195,280 192,287 187,289 180,286 L 180,286 Z"/>
         </g>
        </g>
       </g>
      </g>
     </g>
    </g>
   </g>
  </g>
 </g>
</svg>