<svg width="16" height="16" version="1.1" xmlns="http://www.w3.org/2000/svg">
<path d="m4.5 0c-0.831 0-1.5 0.669-1.5 1.5s0.669 1.5 1.5 1.5h6c0.831 0 1.5-0.669 1.5-1.5s-0.669-1.5-1.5-1.5zm-1.3223 5c-0.65293 0-1.1777 0.52481-1.1777 1.1777v8.6445c0 0.65293 0.52481 1.1777 1.1777 1.1777h8.6445c0.65293 0 1.1777-0.52481 1.1777-1.1777v-8.6445c0-0.65293-0.52481-1.1777-1.1777-1.1777h-2.8223v2.75l1.5 1.25h-1.5v3h1.5l-3 2.5-3-2.5h1.5v-3h-1.5l1.5-1.25v-2.75z" fill="#dfdfdf"/>
<rect transform="scale(1,-1)" x="6" y="-10" width="3" height="9" fill="#dfdfdf" opacity=".3"/>
</svg>
