<svg width="24" height="24" version="1" xmlns="http://www.w3.org/2000/svg">
<path d="m4 5c-0.554 0-1 0.446-1 1v12c0 0.554 0.446 1 1 1h9l2 2 2-2h3c0.554 0 1-0.446 1-1v-12c0-0.554-0.446-1-1-1z" fill="#808080"/>
<circle cx="8" cy="9.5" r="6" opacity=".2"/>
<path d="m4 5c-0.554 0-1 0.446-1 1v0.5c0-0.554 0.446-1 1-1h16c0.554 0 1 0.446 1 1v-0.5c0-0.554-0.446-1-1-1z" fill="#fff" opacity=".1"/>
<circle cx="8" cy="9" r="6" fill="#4daaf5"/>
<path d="m7 13v-2h2v2zm0-3v-5h2v5z" fill="#fff"/>
<path d="m3 18v0.5c0 0.554 0.446 1 1 1h9l2 2 2-2h3c0.554 0 1-0.446 1-1v-0.5c0 0.554-0.446 1-1 1h-3l-2 2-2-2h-9c-0.554 0-1-0.446-1-1z" opacity=".2"/>
</svg>
