<svg width="24" height="24" version="1" xmlns="http://www.w3.org/2000/svg">
<circle cx="12" cy="12" r="10" fill="#00bcd4"/>
<path d="m12 2a10 10 0 0 0-10 10 10 10 0 0 0 0.01075 0.291 10 10 0 0 1 9.989-9.791 10 10 0 0 1 9.9895 9.709 10 10 0 0 0 0.0105-0.209 10 10 0 0 0-10-10z" fill="#fff" opacity=".2"/>
<path d="m21.99 12.209a10 10 0 0 1-9.9895 9.791 10 10 0 0 1-9.989-9.709 10 10 0 0 0-0.011 0.209 10 10 0 0 0 10 10 10 10 0 0 0 10-10 10 10 0 0 0-0.0105-0.291z" opacity=".2"/>
<g transform="translate(0 .5)" opacity=".2">
<path d="m12 5c-1.6572 0-3 1.3434-3 3s1.3428 3 3 3 3-1.3434 3-3-1.3428-3-3-3z"/>
<path d="m12 12c-4.9995 0.0032-5 3.4462-5 3.4462v1.4s0.92307 2.1538 5 2.1538 5-2.1538 5-2.1538v-1.4s0-3.4483-4.999-3.4462z"/>
</g>
<g fill="#fff">
<path d="m12 5c-1.6572 0-3 1.3434-3 3s1.3428 3 3 3 3-1.3434 3-3-1.3428-3-3-3z"/>
<path d="m12 12c-4.9995 0.0032-5 3.4462-5 3.4462v1.4s0.92307 2.1538 5 2.1538 5-2.1538 5-2.1538v-1.4s0-3.4483-4.999-3.4462z"/>
</g>
</svg>
