<svg width="22" height="22" version="1.1" xmlns="http://www.w3.org/2000/svg">
<defs>
<style id="current-color-scheme" type="text/css">.ColorScheme-Text { color:#666666; } .ColorScheme-Highlight { color:#4285f4; }</style>
</defs>
<path class="ColorScheme-Text" d="m5 5s-1 0-1 1v9c0 1 1 1 1 1h2l1 1h4v-2h-3l-1-1h-2v-7h10v4c0.77442 0 1.4708 0.30948 2 0.80078v-5.8008c0-1-1-1-1-1h-12z" fill="#dfdfdf"/>
<path class="ColorScheme-Text" d="m16 12c-1.108 0-2 0.91085-2 2.0312v0.96875h-1v4h6v-4h-1v-0.96875c0-1.1199-0.892-2.0312-2-2.0312zm0 1c0.554 0 1 0.4424 1 1v1h-2v-1c0-0.5576 0.446-1 1-1z" fill="#dfdfdf"/>
</svg>
