<svg width="64" height="64" version="1" xmlns="http://www.w3.org/2000/svg">
<path d="m9.778 12c-1.539 0-2.7779 1.2266-2.7779 2.75v32.5c0 1.5235 1.2389 2.75 2.7779 2.75h25.222l5 6 5-6h9.224c1.538 0 2.7761-1.226 2.7761-2.75v-32.5c-2e-3 -1.5234-1.24-2.75-2.7801-2.75z" opacity=".2"/>
<path d="m9.778 11c-1.539 0-2.7779 1.2266-2.7779 2.75v32.5c0 1.5235 1.2389 2.75 2.7779 2.75h25.222l5 6 5-6h9.224c1.538 0 2.7761-1.226 2.7761-2.75v-32.5c-2e-3 -1.5234-1.24-2.75-2.7801-2.75z" fill="#808080"/>
<path d="m9.7774 11c-1.539 0-2.7773 1.2266-2.7773 2.75v1c0-1.5234 1.2383-2.75 2.7773-2.75h44.445c1.54 0 2.7773 1.2266 2.7773 2.75v-1c0-1.5234-1.2373-2.75-2.7773-2.75h-44.445z" fill="#fff" opacity=".1"/>
<circle cx="16.5" cy="20.5" r="15.5" opacity=".2"/>
<circle cx="16.5" cy="19.5" r="15.5" fill="#4daaf5"/>
<path d="m15 10v13h3v-13zm0 15v3h3v-3z" fill="#fff"/>
</svg>
