<svg width="64" height="64" version="1" xmlns="http://www.w3.org/2000/svg">
<circle cx="32" cy="33" r="28" fill="#00100f" opacity=".2"/>
<circle cx="32" cy="32" r="28" fill="#00bcd4"/>
<g transform="translate(0,1)" opacity=".2">
<path d="m32 14c-3.8668 0-7 3.1346-7 7s3.1332 7 7 7 7-3.1346 7-7-3.1332-7-7-7z"/>
<path d="m32 33c-13.999 0.0084-14 8.8615-14 8.8615v3.6s2.5846 5.5385 14 5.5385 14-5.5385 14-5.5385v-3.6s0-8.8671-13.997-8.8615z"/>
</g>
<g fill="#fff">
<path d="m32 14c-3.8668 0-7 3.1346-7 7s3.1332 7 7 7 7-3.1346 7-7-3.1332-7-7-7z"/>
<path d="m32 33c-13.999 0.0084-14 8.8615-14 8.8615v3.6s2.5846 5.5385 14 5.5385 14-5.5385 14-5.5385v-3.6s0-8.8671-13.997-8.8615z"/>
</g>
<path d="m32 4a28 28 0 0 0-28 28 28 28 0 0 0 0.017578 0.49219 28 28 0 0 1 27.982-27.492 28 28 0 0 1 27.975 27.492 28 28 0 0 0 0.025391-0.49219 28 28 0 0 0-28-28z" fill="#fff" opacity=".2"/>
</svg>
