<svg width="32" height="32" version="1" xmlns="http://www.w3.org/2000/svg">
<path d="m6.3889 7c-0.7695 0-1.3889 0.6133-1.3889 1.375v16.5c0 0.76175 0.61944 1.375 1.3889 1.375h12.5l2.7778 2.75 2.7778-2.75h4.1667c0.769 0 1.388-0.613 1.388-1.375v-16.5c-1e-3 -0.7617-0.62-1.375-1.39-1.375z" fill="#808080"/>
<path d="m6.3887 7c-0.7695 0-1.3887 0.6133-1.3887 1.375v1c0-0.7617 0.6192-1.375 1.3887-1.375h22.222c0.77 0 1.389 0.6133 1.389 1.375v-1c0-0.7617-0.619-1.375-1.389-1.375h-22.222z" fill="#fff" opacity=".1"/>
<circle cx="10" cy="12" r="8" opacity=".2"/>
<circle cx="10" cy="11" r="8" fill="#4daaf5"/>
<path d="m9 6v7h2v-7zm0 8v2h2v-2z" fill="#fff"/>
<path d="m5 24.875v1c0 0.762 0.6192 1.375 1.3887 1.375h12.5l2.777 2.75 2.779-2.75h4.166c0.77 0 1.389-0.613 1.389-1.375v-1c0 0.762-0.619 1.375-1.389 1.375h-4.166l-2.779 2.75-2.777-2.75h-12.5c-0.7698 0-1.389-0.613-1.389-1.375z" opacity=".2"/>
</svg>
