<svg width="32" height="32" version="1" xmlns="http://www.w3.org/2000/svg">
<circle cx="16" cy="17" r="14" fill="#00100f" opacity=".2"/>
<circle cx="16" cy="16" r="14" fill="#00bcd4"/>
<g transform="translate(0,1)" opacity=".2">
<path d="m16 6c-2.2096 0-4 1.7912-4 4s1.7904 4 4 4 4-1.7912 4-4-1.7904-4-4-4z"/>
<path d="m16 16c-6.9993 0.0042-7 4.4308-7 4.4308v1.8s1.2923 2.7692 7 2.7692 7-2.7692 7-2.7692v-1.8s0-4.4335-6.9986-4.4308z"/>
</g>
<g fill="#fff">
<path d="m16 6c-2.2096 0-4 1.7912-4 4s1.7904 4 4 4 4-1.7912 4-4-1.7904-4-4-4z"/>
<path d="m16 16c-6.9993 0.0042-7 4.4308-7 4.4308v1.8s1.2923 2.7692 7 2.7692 7-2.7692 7-2.7692v-1.8s0-4.4335-6.9986-4.4308z"/>
</g>
<path d="m16 2a14 14 0 0 0-14 14 14 14 0 0 0 0.021484 0.58594 14 14 0 0 1 13.979-13.586 14 14 0 0 1 13.979 13.414 14 14 0 0 0 0.021484-0.41406 14 14 0 0 0-14-14z" fill="#fff" opacity=".2"/>
</svg>
