<svg width="24" height="24" version="1.1" xmlns="http://www.w3.org/2000/svg">
<defs>
<style id="current-color-scheme" type="text/css">.ColorScheme-Text { color:#666666; } .ColorScheme-Highlight { color:#4285f4; }</style>
</defs>
<path d="m17.5 16c-0.25 0-0.4437-0.001481-0.63281 0.019531-0.18911 0.021012-0.41535 0.071602-0.5957 0.25195-0.18035 0.18035-0.23094 0.4066-0.25195 0.5957-0.021012 0.18911-0.019531 0.38281-0.019531 0.63281v2c0 0.25-0.001481 0.4437 0.019531 0.63281 0.021012 0.18911 0.071602 0.41535 0.25195 0.5957 0.18035 0.18035 0.4066 0.23094 0.5957 0.25195 0.18911 0.021012 0.38281 0.019531 0.63281 0.019531h1.5v-1h-1.5c-0.23322 0-0.39131-0.003135-0.48828-0.011719-0.008584-0.096975-0.011719-0.25506-0.011719-0.48828v-2c0-0.23322 0.003135-0.39131 0.011719-0.48828 0.096975-0.008584 0.25506-0.011719 0.48828-0.011719h1.5v-1h-1.5z" color="#666666" color-rendering="auto" dominant-baseline="auto" fill="#dfdfdf" image-rendering="auto" shape-rendering="auto" solid-color="#000000" stop-color="#000000" style="font-feature-settings:normal;font-variant-alternates:normal;font-variant-caps:normal;font-variant-east-asian:normal;font-variant-ligatures:normal;font-variant-numeric:normal;font-variant-position:normal;font-variation-settings:normal;inline-size:0;isolation:auto;mix-blend-mode:normal;shape-margin:0;shape-padding:0;text-decoration-color:#000000;text-decoration-line:none;text-decoration-style:solid;text-indent:0;text-orientation:mixed;text-transform:none;white-space:normal"/>
</svg>
