<?xml version="1.0" encoding="UTF-8" standalone="no"?>
<svg
   xmlns:dc="http://purl.org/dc/elements/1.1/"
   xmlns:cc="http://creativecommons.org/ns#"
   xmlns:rdf="http://www.w3.org/1999/02/22-rdf-syntax-ns#"
   xmlns:svg="http://www.w3.org/2000/svg"
   xmlns="http://www.w3.org/2000/svg"
   xmlns:sodipodi="http://sodipodi.sourceforge.net/DTD/sodipodi-0.dtd"
   xmlns:inkscape="http://www.inkscape.org/namespaces/inkscape"
   width="16"
   height="16"
   version="1.1"
   id="svg9"
   sodipodi:docname="network-wireless-offline-secure.svg"
   inkscape:version="1.0.2 (1.0.2+r75+1)">
  <metadata
     id="metadata13">
    <rdf:RDF>
      <cc:Work
         rdf:about="">
        <dc:format>image/svg+xml</dc:format>
        <dc:type
           rdf:resource="http://purl.org/dc/dcmitype/StillImage" />
        <dc:title></dc:title>
      </cc:Work>
    </rdf:RDF>
  </metadata>
  <sodipodi:namedview
     pagecolor="#ffffff"
     bordercolor="#666666"
     borderopacity="1"
     objecttolerance="10"
     gridtolerance="10"
     guidetolerance="10"
     inkscape:pageopacity="0"
     inkscape:pageshadow="2"
     inkscape:window-width="1366"
     inkscape:window-height="703"
     id="namedview11"
     showgrid="false"
     inkscape:zoom="23.5113"
     inkscape:cx="3.702145"
     inkscape:cy="8.249151"
     inkscape:window-x="0"
     inkscape:window-y="0"
     inkscape:window-maximized="1"
     inkscape:current-layer="svg9" />
  <defs
     id="defs3">
    <style
       id="current-color-scheme"
       type="text/css">
   .ColorScheme-Text { color:#666666; } .ColorScheme-Highlight { color:#4285f4; }
  </style>
  </defs>
  <path
     style="opacity:0.3;fill:#dfdfdf"
     class="ColorScheme-Text"
     d="M 8.031,2 C 4.9969,2 2.2653,3.2711 0,5.0156 L 8.031,14 9,12.906 V 11 H 10.014 C 10.033,9.365 11.356,8 13,8 13.108,8 13.21,8.022 13.314,8.033 L 16,5 C 13.743,3.2748 11.042,2 8.031,2 Z"
     id="path5" />
  <path
     style="fill:#dfdfdf"
     class="ColorScheme-Text"
     d="M 13,9 C 11.892,9 11,9.911 11,11.031 V 12 H 10 V 16 H 16 V 12 H 15 V 11.031 C 15,9.911 14.108,9 13,9 Z M 13,10 C 13.554,10 14,10.442 14,11 V 12 H 12 V 11 C 12,10.442 12.446,10 13,10 Z"
     id="path7" />
</svg>
