<?xml version="1.0" encoding="UTF-8" standalone="no"?>
<svg
   xmlns:dc="http://purl.org/dc/elements/1.1/"
   xmlns:cc="http://creativecommons.org/ns#"
   xmlns:rdf="http://www.w3.org/1999/02/22-rdf-syntax-ns#"
   xmlns:svg="http://www.w3.org/2000/svg"
   xmlns="http://www.w3.org/2000/svg"
   xmlns:sodipodi="http://sodipodi.sourceforge.net/DTD/sodipodi-0.dtd"
   xmlns:inkscape="http://www.inkscape.org/namespaces/inkscape"
   width="16"
   height="16"
   version="1.1"
   id="svg7"
   sodipodi:docname="nm-device-wired-secureoffline.svg"
   inkscape:version="1.0.2 (1.0.2+r75+1)">
  <metadata
     id="metadata11">
    <rdf:RDF>
      <cc:Work
         rdf:about="">
        <dc:format>image/svg+xml</dc:format>
        <dc:type
           rdf:resource="http://purl.org/dc/dcmitype/StillImage" />
        <dc:title></dc:title>
      </cc:Work>
    </rdf:RDF>
  </metadata>
  <sodipodi:namedview
     pagecolor="#ffffff"
     bordercolor="#666666"
     borderopacity="1"
     objecttolerance="10"
     gridtolerance="10"
     guidetolerance="10"
     inkscape:pageopacity="0"
     inkscape:pageshadow="2"
     inkscape:window-width="1366"
     inkscape:window-height="703"
     id="namedview9"
     showgrid="false"
     inkscape:zoom="33.25"
     inkscape:cx="8"
     inkscape:cy="8"
     inkscape:window-x="0"
     inkscape:window-y="0"
     inkscape:window-maximized="1"
     inkscape:current-layer="svg7" />
  <defs
     id="defs3">
    <style
       id="current-color-scheme"
       type="text/css">.ColorScheme-Text { color:#dfdfdf; } .ColorScheme-Highlight { color:#4285f4; } .ColorScheme-NeutralText { color:#ff9800; } .ColorScheme-PositiveText { color:#4caf50; } .ColorScheme-NegativeText { color:#f44336; }</style>
  </defs>
  <path
     class="ColorScheme-Text"
     d="m8 0a3 3 0 0 0-3 3v2h-1c-0.554 0-1 0.446-1 1v4c0 0.554 0.446 1 1 1h8c0.554 0 1-0.446 1-1v-4c0-0.554-0.446-1-1-1h-1v-2a3 3 0 0 0-3-3zm0 2c0.57597 0 1 0.42403 1 1v2h-2v-2c0-0.57597 0.42403-1 1-1zm-1 10v1h-2v1 2h6v-2-1h-2v-1h-2zm-6 2c-0.554 0-1 0.446-1 1s0.446 1 1 1h3v-2h-3zm11 0v2h3c0.554 0 1-0.446 1-1s-0.446-1-1-1h-3z"
     fill="#666"
     id="path5"
     style="fill:#dfdfdf;opacity:0.3" />
</svg>
